<?xml version="1.0" encoding="UTF-8"?>
<svg version="1.1" xmlns="http://www.w3.org/2000/svg" width="365" height="365">
<path d="M0 0 C120.45 0 240.9 0 365 0 C365 120.45 365 240.9 365 365 C244.55 365 124.1 365 0 365 C0 244.55 0 124.1 0 0 Z " fill="#FEFEFE" transform="translate(0,0)"/>
<path d="M0 0 C5.51638451 4.32365272 7.36360899 9.14118953 9.3125 15.625 C10.95381761 21.00437336 12.78517052 25.94119561 15.38916016 30.93041992 C16.75583364 33.71616447 17.62882075 36.58982305 18.5 39.5625 C18.82355469 40.65046875 19.14710938 41.7384375 19.48046875 42.859375 C19.75503906 43.83390625 20.02960938 44.8084375 20.3125 45.8125 C20.49402618 46.44524841 20.67555237 47.07799683 20.86257935 47.72991943 C21.3386079 49.93334752 21.39757926 51.83560541 21.34326172 54.08691406 C21.32770233 54.92168274 21.31214294 55.75645142 21.29611206 56.61651611 C21.27831696 57.51134705 21.26052185 58.40617798 21.2421875 59.328125 C21.23128435 61.23826611 21.22357294 63.14842761 21.21875 65.05859375 C21.21090177 68.06005004 21.18765203 71.05659884 21.11035156 74.05712891 C20.37899699 85.6630491 20.37899699 85.6630491 24.76660156 95.84960938 C27.53551912 97.82572879 30.27753879 99.2982007 33.3125 100.8125 C35.79636059 104.53829089 35.6929212 106.39961402 35.3125 110.8125 C33.25647265 114.93794901 30.50562963 117.77415193 27.1875 120.9375 C23.45549644 124.36317382 23.45549644 124.36317382 21.3125 128.8125 C21.9725 128.8125 22.6325 128.8125 23.3125 128.8125 C31.04400455 136.30488586 38.35927454 144.81242965 38.625 155.875 C38.86655214 160.41583101 38.86655214 160.41583101 41.25 164.125 C42.260625 164.681875 43.27125 165.23875 44.3125 165.8125 C54.2426538 172.30020048 60.99434675 178.11251292 64.3125 189.8125 C64.82955929 194.31568545 64.87248073 198.78285686 64.875 203.3125 C64.91706845 214.11808254 65.33098357 224.14694359 72.28515625 232.94140625 C75.68485419 236.07908508 79.7497641 237.98802562 83.8984375 239.9765625 C86.3125 241.8125 86.3125 241.8125 86.7890625 244.8984375 C86.3125 247.8125 86.3125 247.8125 84.3125 249.8125 C77.25818778 249.6404436 69.91829579 245.0264456 64.72265625 240.453125 C55.14177398 229.30639216 54.9729961 217.22367497 55.00976562 203.30273438 C54.86623119 194.68603831 53.64801033 187.47342107 47.6015625 180.97314453 C44.69758428 178.30201579 41.49579107 176.27999314 38.125 174.25 C32.97507074 171.13215115 30.2636369 167.49229258 28.3125 161.8125 C28.1283351 160.00505303 28.00445723 158.19057098 27.9375 156.375 C27.53042503 151.37665326 26.62502793 148.71958422 23.3125 144.8125 C22.673125 144.04550781 22.03375 143.27851563 21.375 142.48828125 C17.54234292 137.6758398 17.54234292 137.6758398 12.3125 134.8125 C12.3125 135.4725 12.3125 136.1325 12.3125 136.8125 C11.6525 136.8125 10.9925 136.8125 10.3125 136.8125 C10.3125 137.4725 10.3125 138.1325 10.3125 138.8125 C9.6525 138.8125 8.9925 138.8125 8.3125 138.8125 C8.3125 139.4725 8.3125 140.1325 8.3125 140.8125 C2.74072635 145.78191974 -1.50211608 146.11542024 -8.74609375 146.01953125 C-14.28792651 145.62946865 -17.2835185 143.4511953 -20.9375 139.5 C-25.09987829 134.30247528 -26.27015878 129.45481005 -25.6875 122.8125 C-23.50537634 116.48434138 -20.84776383 111.80789717 -14.9375 108.5 C-9.95486243 106.24353751 -5.63552092 105.95053541 -0.4296875 107.47265625 C4.71793451 109.48808114 8.15138887 112.2032273 11.8046875 116.32421875 C13.3526189 118.07108048 13.3526189 118.07108048 16.3125 118.8125 C16.3125 118.1525 16.3125 117.4925 16.3125 116.8125 C18.51037504 114.4958209 20.78833036 112.30052001 23.125 110.125 C24.53613777 108.86031729 24.53613777 108.86031729 24.3125 106.8125 C23.38421387 106.30533447 22.45592773 105.79816895 21.49951172 105.27563477 C17.4251801 103.04332047 13.9216115 100.73439102 11.3125 96.8125 C9.09878317 89.14020012 10.08371172 80.63168136 10.4375 72.75 C11.00240907 56.85777863 10.48375025 45.11275159 3.3125 30.8125 C2.54318947 28.68072937 1.80528864 26.5368261 1.125 24.375 C-0.09653178 20.59555978 -1.35285332 16.84372125 -2.75 13.125 C-3.20052734 11.91263672 -3.20052734 11.91263672 -3.66015625 10.67578125 C-4.60555192 8.46310093 -4.60555192 8.46310093 -7.6875 7.8125 C-7.89052734 8.58207031 -7.89052734 8.58207031 -8.09765625 9.3671875 C-10.97767627 19.61109103 -14.92519052 29.65823697 -19.28125 39.36328125 C-22.35562685 46.90404448 -22.91190095 53.29948629 -22.71484375 61.33984375 C-22.70104166 63.36912387 -22.69006042 65.39842479 -22.68164062 67.42773438 C-22.66125811 70.59340952 -22.62486577 73.75502224 -22.5402832 76.91967773 C-22.07990396 95.60352288 -22.07990396 95.60352288 -26.06689453 100.08251953 C-29.00390625 102.44140625 -29.00390625 102.44140625 -31.92797852 104.16625977 C-35.93254285 106.55525183 -38.08094738 109.41762032 -39.92578125 113.66015625 C-40.80478289 117.29787074 -40.91645409 120.50782638 -40.875 124.25 C-40.86855469 124.94448242 -40.86210937 125.63896484 -40.85546875 126.35449219 C-40.78668042 131.10303648 -40.52416377 135.82481132 -40.1875 140.5625 C-38.58472636 163.31231695 -38.58472636 163.31231695 -46.0625 173.375 C-49.66961857 177.30918891 -54.29649953 179.97389512 -58.83740234 182.70532227 C-61.89847391 184.55829424 -63.66887013 185.7845552 -65.6875 188.8125 C-66.00802708 191.75134221 -66.00802708 191.75134221 -65.99609375 195.09765625 C-66.02123047 196.35126953 -66.04636719 197.60488281 -66.07226562 198.89648438 C-66.10705885 201.5214398 -66.13838362 204.1464438 -66.16601562 206.77148438 C-66.43301074 219.52864104 -69.00479225 231.43595921 -77.83203125 241.1796875 C-85.47218707 248.28620381 -91.82381942 250.40721206 -102.24609375 250.1640625 C-107.05145437 249.673163 -110.58895398 248.30119628 -114.6875 245.8125 C-115.60595703 245.30396484 -115.60595703 245.30396484 -116.54296875 244.78515625 C-121.3181731 241.82305377 -123.9705118 237.84122741 -126.9140625 233.1171875 C-128.58035359 230.65324817 -128.58035359 230.65324817 -131.328125 229.265625 C-133.6875 227.8125 -133.6875 227.8125 -134.5078125 225.9296875 C-134.60835937 225.18976563 -134.70890625 224.44984375 -134.8125 223.6875 C-134.9465625 222.81351563 -135.080625 221.93953125 -135.21875 221.0390625 C-135.45078125 219.44191406 -135.45078125 219.44191406 -135.6875 217.8125 C-135.94224247 216.40260881 -136.2030896 214.9938123 -136.46875 213.5859375 C-136.75021393 212.07816492 -137.03146311 210.57035224 -137.3125 209.0625 C-137.4480127 208.34175293 -137.58352539 207.62100586 -137.72314453 206.87841797 C-138.45297285 202.80362167 -138.83064605 198.95072229 -138.6875 194.8125 C-137.6975 194.8125 -136.7075 194.8125 -135.6875 194.8125 C-135.6875 192.5025 -135.6875 190.1925 -135.6875 187.8125 C-132.95502652 186.44626326 -130.70551098 186.684074 -127.6875 186.8125 C-126.6875 187.8125 -126.6875 187.8125 -126.625 190.375 C-126.645625 191.179375 -126.66625 191.98375 -126.6875 192.8125 C-124.7075 192.8125 -122.7275 192.8125 -120.6875 192.8125 C-114.14870109 218.4489149 -114.14870109 218.4489149 -114.6875 225.8125 C-115.6775 226.8025 -115.6775 226.8025 -116.6875 227.8125 C-116.49652309 230.50800273 -115.94044376 231.57055379 -113.98046875 233.4453125 C-113.28566406 233.93773437 -112.59085938 234.43015625 -111.875 234.9375 C-111.18792969 235.43507813 -110.50085938 235.93265625 -109.79296875 236.4453125 C-104.44698722 239.91672908 -100.05256989 240.91157363 -93.6875 239.8125 C-85.48685325 235.62821096 -80.87097745 228.40710698 -77.60498047 220.03881836 C-76.60886837 216.53599203 -76.51821488 213.76134261 -76.6328125 210.12890625 C-76.65730469 208.87142578 -76.68179688 207.61394531 -76.70703125 206.31835938 C-76.77724525 203.69313586 -76.85534881 201.06811129 -76.94140625 198.44335938 C-77.09812663 189.44115612 -76.55795206 184.98117785 -70.35546875 178.30078125 C-65.65124382 174.17439812 -61.20878104 170.74215933 -55.6875 167.8125 C-52.81725882 165.53610182 -51.87688438 163.25402432 -50.6875 159.8125 C-50.40057062 157.30689881 -50.40057062 157.30689881 -50.45703125 154.72265625 C-50.45896484 153.77326172 -50.46089844 152.82386719 -50.46289062 151.84570312 C-50.47513672 150.86537109 -50.48738281 149.88503906 -50.5 148.875 C-50.50064453 147.89853516 -50.50128906 146.92207031 -50.50195312 145.91601562 C-50.53142262 141.08629229 -50.8112062 136.57144938 -51.6875 131.8125 C-52.47039832 120.37705075 -51.90778105 110.48110515 -44.3125 101.4375 C-42.17973318 99.14300679 -40.23653035 97.51060147 -37.60986328 95.75219727 C-35.72831448 94.17929177 -34.81683345 93.26187012 -34.13381958 90.88873291 C-33.93047423 88.54978159 -33.90901133 86.27318663 -33.953125 83.92578125 C-33.94416199 83.06873093 -33.93519897 82.2116806 -33.92596436 81.32865906 C-33.9019113 78.5934013 -33.91772993 75.86026158 -33.9375 73.125 C-33.92909092 57.37898847 -32.8756861 45.11092821 -27.11157227 30.2722168 C-26.37872658 28.3845987 -25.65814779 26.49265455 -24.93945312 24.59960938 C-16.68571695 3.09021483 -16.68571695 3.09021483 -12.6875 -0.1875 C-8.21323668 -1.67892111 -4.36835977 -1.93020548 0 0 Z " fill="#E19A50" transform="translate(190.6875,47.1875)"/>
<path d="M0 0 C0.66 0 1.32 0 2 0 C3.74439168 6.46166971 4.20350781 12.33513628 4.02734375 19.00390625 C4.01354649 20.89776854 4.00256327 22.79165306 3.99414062 24.68554688 C3.97373247 27.63194294 3.93717107 30.5739804 3.8527832 33.51928711 C3.10075718 44.97434483 3.10075718 44.97434483 7.44970703 55.01513672 C10.2193259 56.99369422 12.96773127 58.47534884 16 60 C18.48386059 63.72579089 18.3804212 65.58711402 18 70 C15.94397265 74.12544901 13.19312963 76.96165193 9.875 80.125 C6.14299644 83.55067382 6.14299644 83.55067382 4 88 C4.66 88 5.32 88 6 88 C13.73150455 95.49238586 21.04677454 103.99992965 21.3125 115.0625 C21.55405214 119.60333101 21.55405214 119.60333101 23.9375 123.3125 C24.948125 123.869375 25.95875 124.42625 27 125 C36.9301538 131.48770048 43.68184675 137.30001292 47 149 C47.51705929 153.50318545 47.55998073 157.97035686 47.5625 162.5 C47.60456845 173.30558254 48.01848357 183.33444359 54.97265625 192.12890625 C58.37235419 195.26658508 62.4372641 197.17552562 66.5859375 199.1640625 C69 201 69 201 69.4765625 204.0859375 C69 207 69 207 67 209 C59.94568778 208.8279436 52.60579579 204.2139456 47.41015625 199.640625 C37.82927398 188.49389216 37.6604961 176.41117497 37.69726562 162.49023438 C37.55373119 153.87353831 36.33551033 146.66092107 30.2890625 140.16064453 C27.38508428 137.48951579 24.18329107 135.46749314 20.8125 133.4375 C15.66257074 130.31965115 12.9511369 126.67979258 11 121 C10.8158351 119.19255303 10.69195723 117.37807098 10.625 115.5625 C10.21792503 110.56415326 9.31252793 107.90708422 6 104 C5.360625 103.23300781 4.72125 102.46601563 4.0625 101.67578125 C0.22984292 96.8633398 0.22984292 96.8633398 -5 94 C-5 94.66 -5 95.32 -5 96 C-5.66 96 -6.32 96 -7 96 C-7 96.66 -7 97.32 -7 98 C-7.66 98 -8.32 98 -9 98 C-9 98.66 -9 99.32 -9 100 C-14.57177365 104.96941974 -18.81461608 105.30292024 -26.05859375 105.20703125 C-31.60042651 104.81696865 -34.5960185 102.6386953 -38.25 98.6875 C-42.41237829 93.48997528 -43.58265878 88.64231005 -43 82 C-40.81787634 75.67184138 -38.16026383 70.99539717 -32.25 67.6875 C-27.26736243 65.43103751 -22.94802092 65.13803541 -17.7421875 66.66015625 C-12.59456549 68.67558114 -9.16111113 71.3907273 -5.5078125 75.51171875 C-3.9598811 77.25858048 -3.9598811 77.25858048 -1 78 C-1 77.34 -1 76.68 -1 76 C1.19787504 73.6833209 3.47583036 71.48802001 5.8125 69.3125 C7.22363777 68.04781729 7.22363777 68.04781729 7 66 C5.71802734 65.3507959 5.71802734 65.3507959 4.41015625 64.68847656 C0.51031565 62.59407559 -2.56174778 60.7585687 -5 57 C-6.90672343 50.25486357 -6.38754481 43.02481685 -6.125 36.08789062 C-5.99978602 32.74428598 -5.96106142 29.40822202 -5.9375 26.0625 C-5.90083349 23.93219973 -5.8593345 21.80197598 -5.8125 19.671875 C-5.78700073 18.17802277 -5.78700073 18.17802277 -5.76098633 16.6539917 C-5.53317729 11.13177158 -5.09413014 8.05607315 -1 4 C-0.22166466 1.81785432 -0.22166466 1.81785432 0 0 Z " fill="#E3984A" transform="translate(208,88)"/>
<path d="M0 0 C0 0.33 0 0.66 0 1 C-4.455 1.495 -4.455 1.495 -9 2 C-9 2.66 -9 3.32 -9 4 C-9 4.66 -9 5.32 -9 6 C-7.1172428 7.6751237 -7.1172428 7.6751237 -4.75 9.375 C-1.576007 11.72956344 1.26073562 14.14764672 4 17 C3.01621713 19.19459255 2.22103594 20.79664694 0.4375 22.4375 C-1.45263121 24.49199044 -1.6324247 26.27994277 -2 29 C-1.34 29.33 -0.68 29.66 0 30 C0 30.99 0 31.98 0 33 C0.66 33.33 1.32 33.66 2 34 C-3.55644616 37.85382871 -8.44055482 37.63363348 -15 37 C-20.49586218 35.26982116 -23.79324133 31.65079596 -27 27 C-29.61058794 21.30417178 -29.79169418 16.29591312 -27.75 10.375 C-21.78619768 -1.12661876 -12.19858834 -4.87943533 0 0 Z " fill="#E19C53" transform="translate(194,156)"/>
<path d="M0 0 C3.62626109 2.71309782 6.82320748 5.77846392 10 9 C7.97114889 13.50855801 5.28090792 16.49607273 1 19 C-2.15253273 19.71117742 -4.85064685 19.73099106 -8 19 C-10.50160818 17.12379387 -11.61945652 15.76108697 -13 13 C-13.39447548 8.81855989 -13.45035186 6.69053952 -11.125 3.125 C-7.84106209 -0.15893791 -4.53218434 -1.33251155 0 0 Z " fill="#FDFCFB" transform="translate(188,164)"/>
<path d="M0 0 C0.66 0 1.32 0 2 0 C2 8.91 2 17.82 2 27 C1.34 27.33 0.68 27.66 0 28 C-0.40729228 30.32156597 -0.74438677 32.6568787 -1 35 C-3.46484375 34.17578125 -3.46484375 34.17578125 -6 32 C-6.77610514 28.39909457 -6.6502488 24.85634865 -6.5625 21.1875 C-6.57345703 20.20201172 -6.58441406 19.21652344 -6.59570312 18.20117188 C-6.53444822 12.12060188 -5.90965243 8.68709766 -2 4 C-1.30570621 2.6808418 -0.62469505 1.35350594 0 0 Z " fill="#E29646" transform="translate(121,236)"/>
<path d="M0 0 C0.51851177 3.16868305 0.74837584 4.93617946 0 8 C-2.55563383 11.52538168 -5.38114901 14.56146962 -9 17 C-11.15625 16.71875 -11.15625 16.71875 -13 16 C-15.18703385 16.37907282 -15.18703385 16.37907282 -17 17 C-17.66 16.01 -18.32 15.02 -19 14 C-18.01 14 -17.02 14 -16 14 C-15.67 13.01 -15.34 12.02 -15 11 C-14.34 11 -13.68 11 -13 11 C-12.79375 10.236875 -12.5875 9.47375 -12.375 8.6875 C-10.5649375 5.14965056 -8.62917831 4.43654975 -5 3 C-4.34 3 -3.68 3 -3 3 C-3 2.34 -3 1.68 -3 1 C-1 0 -1 0 0 0 Z " fill="#E39645" transform="translate(225,153)"/>
<path d="M0 0 C0.33 0 0.66 0 1 0 C2.27831175 7.03071463 3.28289063 15.15132811 1 22 C-0.32 21.67 -1.64 21.34 -3 21 C-2.67 20.34 -2.34 19.68 -2 19 C-3.32 18.67 -4.64 18.34 -6 18 C-5.91621094 17.26394531 -5.83242187 16.52789062 -5.74609375 15.76953125 C-5.59333984 14.30580078 -5.59333984 14.30580078 -5.4375 12.8125 C-5.33308594 11.84957031 -5.22867188 10.88664063 -5.12109375 9.89453125 C-5.00241249 7.05766623 -5.32234361 4.74576329 -6 2 C-4.0625 1.4375 -4.0625 1.4375 -2 1 C-1.67 1.33 -1.34 1.66 -1 2 C-0.67 1.34 -0.34 0.68 0 0 Z " fill="#E19646" transform="translate(148,190)"/>
<path d="M0 0 C0.33 1.32 0.66 2.64 1 4 C0.01 4.495 0.01 4.495 -1 5 C-1 6.32 -1 7.64 -1 9 C0.70840281 7.36587557 1.93453047 6.13093906 3 4 C4.65 4 6.3 4 8 4 C7.76228882 4.78165527 7.76228882 4.78165527 7.51977539 5.57910156 C6.86021098 8.65107932 6.78002727 11.59339747 6.68359375 14.734375 C6.64169922 16.02988281 6.59980469 17.32539063 6.55664062 18.66015625 C6.51683329 20.02343476 6.47712094 21.38671606 6.4375 22.75 C6.39427726 24.12891875 6.35066179 25.50782526 6.30664062 26.88671875 C6.20056042 30.2577119 6.0985015 33.62877826 6 37 C5.67 37 5.34 37 5 37 C5 27.43 5 17.86 5 8 C1.98859877 9.50570062 1.4372818 12.10144829 0.09765625 15.08984375 C-1 17 -1 17 -4 19 C-4.44701413 11.43801103 -4.53574091 6.23664375 0 0 Z " fill="#DFA161" transform="translate(118,228)"/>
<path d="M0 0 C2.5 2.0625 2.5 2.0625 5 5 C5.3125 8.8125 5.3125 8.8125 5 12 C4.34 10.68 3.68 9.36 3 8 C2.34 8 1.68 8 1 8 C1 8.66 1 9.32 1 10 C-0.093125 10.391875 -1.18625 10.78375 -2.3125 11.1875 C-5.96394888 12.7377127 -7.20996749 14.41993497 -9 18 C-10.99059614 20.65412818 -11.84088892 20.96568192 -15.1875 21.6875 C-16.115625 21.790625 -17.04375 21.89375 -18 22 C-18.33 20.68 -18.66 19.36 -19 18 C-16.525 18.99 -16.525 18.99 -14 20 C-14 19.34 -14 18.68 -14 18 C-11.80212496 15.6833209 -9.52416964 13.48802001 -7.1875 11.3125 C-5.77636223 10.04781729 -5.77636223 10.04781729 -6 8 C-7.62553283 6.29319053 -9.29115995 4.62339805 -11 3 C-6.3125 3.78125 -6.3125 3.78125 -1.625 4.5625 C-0.325625 4.7790625 -0.325625 4.7790625 1 5 C0.67 3.35 0.34 1.7 0 0 Z " fill="#E19F5B" transform="translate(221,146)"/>
<path d="M0 0 C3.875 1.875 3.875 1.875 5 3 C5.66 2.01 6.32 1.02 7 0 C7.83905565 1.12073862 8.67107831 2.24674547 9.5 3.375 C9.9640625 4.00148437 10.428125 4.62796875 10.90625 5.2734375 C12 7 12 7 12 9 C11.01 8.67 10.02 8.34 9 8 C8.67 7.34 8.34 6.68 8 6 C7.34 6 6.68 6 6 6 C5.91087781 9.83225427 6.12132271 13.26562152 7 17 C6.34 17 5.68 17 5 17 C5 19.31 5 21.62 5 24 C4.67 24 4.34 24 4 24 C3.97421875 23.27554688 3.9484375 22.55109375 3.921875 21.8046875 C3.56333446 15.69320099 2.94809963 11.90521469 -1 7 C-1.69429379 5.6808418 -2.37530495 4.35350594 -3 3 C-2.01 2.34 -1.02 1.68 0 1 C0 0.67 0 0.34 0 0 Z " fill="#E39A52" transform="translate(215,185)"/>
<path d="M0 0 C2.875 0.625 2.875 0.625 6 2 C7.375 5.125 7.375 5.125 8 8 C7.67 8.33 7.34 8.66 7 9 C7.99 9.66 8.98 10.32 10 11 C9.67 11.66 9.34 12.32 9 13 C6.4375 13.625 6.4375 13.625 4 14 C4.33 11.69 4.66 9.38 5 7 C4.01 8.32 3.02 9.64 2 11 C0.5 9.875 0.5 9.875 -1 8 C-1.25265405 4.90498792 -1.39935013 2.79870027 0 0 Z " fill="#E49542" transform="translate(241,220)"/>
<path d="M0 0 C1.65 0 3.3 0 5 0 C6.61949011 2.57213134 7.04408751 3.67669159 6.625 6.75 C6.41875 7.4925 6.2125 8.235 6 9 C5.34 9 4.68 9 4 9 C4 8.34 4 7.68 4 7 C2.68 7 1.36 7 0 7 C-0.33 8.65 -0.66 10.3 -1 12 C-1.66 12 -2.32 12 -3 12 C-3.33 12.66 -3.66 13.32 -4 14 C-4.1875 11.1875 -4.1875 11.1875 -4 8 C-2.5625 6.4375 -2.5625 6.4375 -1 5 C-0.27802838 2.39388923 -0.27802838 2.39388923 0 0 Z " fill="#E69542" transform="translate(182,47)"/>
<path d="M0 0 C2 3 2 3 1.8125 6.375 C0.44366815 12.48209593 -2.50632072 15.7492223 -7 20 C-5.07443364 13.14381674 -2.7527517 6.56747868 0 0 Z " fill="#DFA160" transform="translate(172,56)"/>
<path d="M0 0 C0.9075 0.185625 1.815 0.37125 2.75 0.5625 C5.68314324 0.95734621 7.2644657 0.94691572 10 0 C10 0.99 10 1.98 10 3 C10.66 3 11.32 3 12 3 C11.6875 4.9375 11.6875 4.9375 11 7 C10.01 7.33 9.02 7.66 8 8 C5.95703125 6.6015625 5.95703125 6.6015625 3.8125 4.625 C3.09707031 3.97789062 2.38164062 3.33078125 1.64453125 2.6640625 C0 1 0 1 0 0 Z " fill="#E19D58" transform="translate(188,164)"/>
<path d="M0 0 C0.66 0.33 1.32 0.66 2 1 C0.84826645 3.46800047 -0.04783565 5.04783565 -2 7 C-2.33 7.99 -2.66 8.98 -3 10 C-5.0625 10.6875 -5.0625 10.6875 -7 11 C-6.875 7.75 -6.875 7.75 -6 4 C-2.9375 1.5625 -2.9375 1.5625 0 0 Z " fill="#E39341" transform="translate(137,215)"/>
<path d="M0 0 C0.66 0 1.32 0 2 0 C2 0.66 2 1.32 2 2 C1.34 2 0.68 2 0 2 C0 1.34 0 0.68 0 0 Z M-2 2 C-1.34 2.33 -0.68 2.66 0 3 C-0.99 4.485 -0.99 4.485 -2 6 C-2 7.32 -2 8.64 -2 10 C-4 11.75 -4 11.75 -6 13 C-6.33 11.35 -6.66 9.7 -7 8 C-6.01 7.67 -5.02 7.34 -4 7 C-4 5.68 -4 4.36 -4 3 C-3.34 2.67 -2.68 2.34 -2 2 Z " fill="#E59543" transform="translate(123,225)"/>
<path d="M0 0 C0.66 0 1.32 0 2 0 C2.33 1.65 2.66 3.3 3 5 C2.360625 5.4125 1.72125 5.825 1.0625 6.25 C-1.20990931 8.17810487 -1.60196439 9.11424181 -2 12 C-2.66 12 -3.32 12 -4 12 C-3.52309796 10.37433394 -3.04340334 8.74948689 -2.5625 7.125 C-2.29566406 6.22007813 -2.02882812 5.31515625 -1.75390625 4.3828125 C-1 2 -1 2 0 0 Z " fill="#E19D5B" transform="translate(163,80)"/>
<path d="M0 0 C3.33161397 2.98696425 5.34826557 5.82719722 7 10 C6.6875 12.375 6.6875 12.375 6 14 C6 13.01 6 12.02 6 11 C5.34 11 4.68 11 4 11 C3.67 10.01 3.34 9.02 3 8 C2.01 7.34 1.02 6.68 0 6 C0.33 5.34 0.66 4.68 1 4 C0.60061233 1.90178785 0.60061233 1.90178785 0 0 Z " fill="#E3A769" transform="translate(247,223)"/>
<path d="M0 0 C0.33 0.99 0.66 1.98 1 3 C-1.60582371 3.93065133 -2.64198224 4.14917407 -5.25 3.0625 C-5.8275 2.711875 -6.405 2.36125 -7 2 C-7 1.34 -7 0.68 -7 0 C-4.3333581 -1.33332095 -2.83319697 -0.67102033 0 0 Z " fill="#E7933F" transform="translate(222,148)"/>
<path d="M0 0 C0.33 0 0.66 0 1 0 C2.5056904 5.80766296 3.21824777 10.9981863 3 17 C2.67 17 2.34 17 2 17 C2 15.35 2 13.7 2 12 C1.34 12 0.68 12 0 12 C0 8.04 0 4.08 0 0 Z " fill="#E0AD76" transform="translate(209,88)"/>
<path d="M0 0 C1.50751963 2.39429588 2.00562203 3.76387491 1.9375 6.625 C1 9 1 9 -1.5625 10.3125 C-2.7690625 10.6528125 -2.7690625 10.6528125 -4 11 C-3.5247412 9.35303396 -3.04468109 7.70745272 -2.5625 6.0625 C-2.29566406 5.14597656 -2.02882813 4.22945313 -1.75390625 3.28515625 C-1 1 -1 1 0 0 Z " fill="#E1A15E" transform="translate(114,264)"/>
<path d="M0 0 C0.66 0 1.32 0 2 0 C2 0.66 2 1.32 2 2 C3.98 2 5.96 2 8 2 C8.66 3.32 9.32 4.64 10 6 C9.34 6 8.68 6 8 6 C7.67 6.66 7.34 7.32 7 8 C6.67 7.01 6.34 6.02 6 5 C2.99992729 3.29144978 2.99992729 3.29144978 0 2 C0 1.34 0 0.68 0 0 Z " fill="#E4963F" transform="translate(264,284)"/>
<path d="M0 0 C1.9375 0.1875 1.9375 0.1875 4 1 C5.25 3.0625 5.25 3.0625 6 5 C4.68 5.33 3.36 5.66 2 6 C1.01 4.35 0.02 2.7 -1 1 C-0.67 0.67 -0.34 0.34 0 0 Z " fill="#E4963F" transform="translate(140,210)"/>
<path d="M0 0 C0.66 0 1.32 0 2 0 C1.55123384 1.64846769 1.09069512 3.29373455 0.625 4.9375 C0.36976563 5.85402344 0.11453125 6.77054687 -0.1484375 7.71484375 C-1 10 -1 10 -3 11 C-3.93065133 8.39417629 -4.14917407 7.35801776 -3.0625 4.75 C-2.5365625 3.88375 -2.5365625 3.88375 -2 3 C-1.34 3 -0.68 3 0 3 C0 2.01 0 1.02 0 0 Z " fill="#DF9D58" transform="translate(174,73)"/>
<path d="M0 0 C0.66 0.99 1.32 1.98 2 3 C1.54625 3.433125 1.0925 3.86625 0.625 4.3125 C-1.20024334 6.10798342 -1.20024334 6.10798342 -3 9 C-3.66 8.67 -4.32 8.34 -5 8 C-4.67 6.68 -4.34 5.36 -4 4 C-3.34 4 -2.68 4 -2 4 C-1.34 2.68 -0.68 1.36 0 0 Z " fill="#E39542" transform="translate(115,270)"/>
<path d="M0 0 C0.99 0.33 1.98 0.66 3 1 C2.8125 2.875 2.8125 2.875 2 5 C-0.5625 6.25 -0.5625 6.25 -3 7 C-2.38722388 4.03824877 -1.74627478 2.61941217 0 0 Z " fill="#E49442" transform="translate(174,180)"/>
<path d="M0 0 C0.99 0.33 1.98 0.66 3 1 C2.04882866 2.1725131 1.08882991 3.33787015 0.125 4.5 C-0.40867187 5.1496875 -0.94234375 5.799375 -1.4921875 6.46875 C-1.98976563 6.9740625 -2.48734375 7.479375 -3 8 C-3.66 8 -4.32 8 -5 8 C-5 7.01 -5 6.02 -5 5 C-4.01 5 -3.02 5 -2 5 C-1.34 3.35 -0.68 1.7 0 0 Z " fill="#DCA264" transform="translate(113,283)"/>
<path d="M0 0 C0.66 0 1.32 0 2 0 C2.33 1.65 2.66 3.3 3 5 C2.34 5 1.68 5 1 5 C1 7.31 1 9.62 1 12 C0.67 12 0.34 12 0 12 C0 8.04 0 4.08 0 0 Z " fill="#E2A66B" transform="translate(219,197)"/>
<path d="M0 0 C1.5625 1.25 1.5625 1.25 3 3 C2.6875 5.1875 2.6875 5.1875 2 7 C1.01 7 0.02 7 -1 7 C-0.67 4.69 -0.34 2.38 0 0 Z " fill="#DFA25E" transform="translate(202,72)"/>
<path d="M0 0 C2 1.375 2 1.375 4 3 C4 3.66 4 4.32 4 5 C1.03 4.67 -1.94 4.34 -5 4 C-5 3.34 -5 2.68 -5 2 C-3.35 2 -1.7 2 0 2 C0 1.34 0 0.68 0 0 Z " fill="#E39541" transform="translate(103,287)"/>
</svg>
